<svg width="192" height="192" viewBox="0 0 192 192" fill="none" xmlns="http://www.w3.org/2000/svg">
<rect width="192" height="192" fill="#8238BD"/>
<path d="M27.14 117L17.18 99.9H10.58V117H5.12V75.18H18.62C21.78 75.18 24.44 75.72 26.6 76.8C28.8 77.88 30.44 79.34 31.52 81.18C32.6 83.02 33.14 85.12 33.14 87.48C33.14 90.36 32.3 92.9 30.62 95.1C28.98 97.3 26.5 98.76 23.18 99.48L33.68 117H27.14ZM10.58 95.52H18.62C21.58 95.52 23.8 94.8 25.28 93.36C26.76 91.88 27.5 89.92 27.5 87.48C27.5 85 26.76 83.08 25.28 81.72C23.84 80.36 21.62 79.68 18.62 79.68H10.58V95.52ZM71.6239 99.3C71.6239 100.34 71.5639 101.44 71.4439 102.6H45.1639C45.3639 105.84 46.4639 108.38 48.4639 110.22C50.5039 112.02 52.9639 112.92 55.8439 112.92C58.2039 112.92 60.1639 112.38 61.7239 111.3C63.3239 110.18 64.4439 108.7 65.0839 106.86H70.9639C70.0839 110.02 68.3239 112.6 65.6839 114.6C63.0439 116.56 59.7639 117.54 55.8439 117.54C52.7239 117.54 49.9239 116.84 47.4439 115.44C45.0039 114.04 43.0839 112.06 41.6839 109.5C40.2839 106.9 39.5839 103.9 39.5839 100.5C39.5839 97.1 40.2639 94.12 41.6239 91.56C42.9839 89 44.8839 87.04 47.3239 85.68C49.8039 84.28 52.6439 83.58 55.8439 83.58C58.9639 83.58 61.7239 84.26 64.1239 85.62C66.5239 86.98 68.3639 88.86 69.6439 91.26C70.9639 93.62 71.6239 96.3 71.6239 99.3ZM65.9839 98.16C65.9839 96.08 65.5239 94.3 64.6039 92.82C63.6839 91.3 62.4239 90.16 60.8239 89.4C59.2639 88.6 57.5239 88.2 55.6039 88.2C52.8439 88.2 50.4839 89.08 48.5239 90.84C46.6039 92.6 45.5039 95.04 45.2239 98.16H65.9839ZM123.139 100.44C123.139 97.08 123.819 94.14 125.179 91.62C126.539 89.06 128.399 87.08 130.759 85.68C133.159 84.28 135.819 83.58 138.739 83.58C141.619 83.58 144.119 84.2 146.239 85.44C148.359 86.68 149.939 88.24 150.979 90.12V84.12H156.499V117H150.979V110.88C149.899 112.8 148.279 114.4 146.119 115.68C143.999 116.92 141.519 117.54 138.679 117.54C135.759 117.54 133.119 116.82 130.759 115.38C128.399 113.94 126.539 111.92 125.179 109.32C123.819 106.72 123.139 103.76 123.139 100.44ZM150.979 100.5C150.979 98.02 150.479 95.86 149.479 94.02C148.479 92.18 147.119 90.78 145.399 89.82C143.719 88.82 141.859 88.32 139.819 88.32C137.779 88.32 135.919 88.8 134.239 89.76C132.559 90.72 131.219 92.12 130.219 93.96C129.219 95.8 128.719 97.96 128.719 100.44C128.719 102.96 129.219 105.16 130.219 107.04C131.219 108.88 132.559 110.3 134.239 111.3C135.919 112.26 137.779 112.74 139.819 112.74C141.859 112.74 143.719 112.26 145.399 111.3C147.119 110.3 148.479 108.88 149.479 107.04C150.479 105.16 150.979 102.98 150.979 100.5ZM171.185 72.6V117H165.725V72.6H171.185ZM185.951 72.6V117H180.491V72.6H185.951Z" fill="white"/>
<path d="M76.7909 96.06C76.7909 91.98 77.7109 88.32 79.5509 85.08C81.3909 81.8 83.8909 79.24 87.0509 77.4C90.2509 75.56 93.7909 74.64 97.6709 74.64C102.231 74.64 106.211 75.74 109.611 77.94C113.011 80.14 115.491 83.26 117.051 87.3H110.511C109.351 84.78 107.671 82.84 105.471 81.48C103.311 80.12 100.711 79.44 97.6709 79.44C94.7509 79.44 92.1309 80.12 89.8109 81.48C87.4909 82.84 85.6709 84.78 84.3509 87.3C83.0309 89.78 82.3709 92.7 82.3709 96.06C82.3709 99.38 83.0309 102.3 84.3509 104.82C85.6709 107.3 87.4909 109.22 89.8109 110.58C92.1309 111.94 94.7509 112.62 97.6709 112.62C100.711 112.62 103.311 111.96 105.471 110.64C107.671 109.28 109.351 107.34 110.511 104.82H117.051C115.491 108.82 113.011 111.92 109.611 114.12C106.211 116.28 102.231 117.36 97.6709 117.36C93.7909 117.36 90.2509 116.46 87.0509 114.66C83.8909 112.82 81.3909 110.28 79.5509 107.04C77.7109 103.8 76.7909 100.14 76.7909 96.06Z" fill="#8238BD"/>
<path d="M113.521 79.2855C110.075 76.0583 105.681 74.0255 100.991 73.4877C96.2996 72.9498 91.5601 73.9355 87.4725 76.2989C83.3849 78.6623 80.1661 82.2781 78.2919 86.6119C76.4177 90.9457 75.9875 95.7674 77.0649 100.365C78.1423 104.962 80.6702 109.09 84.2748 112.14C87.8795 115.19 92.3697 116.999 97.0817 117.3C101.794 117.601 106.478 116.378 110.441 113.812C114.405 111.246 117.437 107.472 119.091 103.05L113.923 101.117C112.684 104.431 110.412 107.258 107.442 109.18C104.473 111.103 100.964 112.019 97.4335 111.793C93.9033 111.568 90.5392 110.212 87.8386 107.928C85.138 105.643 83.2442 102.55 82.437 99.1055C81.6298 95.6614 81.9521 92.0489 83.3562 88.802C84.7604 85.5552 87.1719 82.8462 90.2343 81.0755C93.2967 79.3048 96.8476 78.5664 100.362 78.9694C103.876 79.3723 107.168 80.8953 109.75 83.3131L113.521 79.2855Z" fill="white"/>
<path d="M115.083 77.3796C115.739 76.6758 116.911 76.9464 117.193 77.8666L120.231 87.8048C120.512 88.725 119.692 89.6047 118.754 89.3882L108.628 87.0505C107.691 86.834 107.339 85.6838 107.995 84.98L115.083 77.3796Z" fill="white"/>
</svg>
